GRF
version=1
nRows=15
nColumns=19
inDegrees=no
endheader
time	ground_force_vx	ground_force_vy	ground_force_vz	ground_force_px	ground_force_py	ground_force_pz	ground_torque_x	ground_torque_y	ground_torque_z	1_ground_force_vx	1_ground_force_vy	1_ground_force_vz	1_ground_force_px	1_ground_force_py	1_ground_force_pz	1_ground_torque_x	1_ground_torque_y	1_ground_torque_z
      5.25000000	    -54.90961549	    372.93991771	     10.35499739	      0.18739330	     -0.00000000	     -0.09059654	      0.00000000	      0.60880804	     -0.00000000	     42.93008517	    336.72954019	     -9.80289120	     -0.24872888	      0.00000000	     -0.02803349	      0.00000000	      1.53870702	     -0.00000000
      5.25100000	    -54.87766874	    372.86481728	     10.39807924	      0.18738825	     -0.00000000	     -0.09067741	      0.00000000	      0.60778912	     -0.00000000	     42.96805872	    336.86987023	     -9.78239156	     -0.24876260	      0.00000000	     -0.02808648	      0.00000000	      1.53749674	     -0.00000000
      5.25200000	    -54.84573507	    372.78968881	     10.44106423	      0.18738348	     -0.00000000	     -0.09075655	      0.00000000	      0.60686669	     -0.00000000	     43.00644400	    337.01186180	     -9.76313417	     -0.24879637	      0.00000000	     -0.02813759	      0.00000000	      1.53616035	     -0.00000000
      5.25300000	    -54.81384174	    372.71457066	     10.48386168	      0.18737896	     -0.00000000	     -0.09083364	      0.00000000	      0.60607792	     -0.00000000	     43.04516820	    337.15538525	     -9.74525557	     -0.24883021	      0.00000000	     -0.02818642	      0.00000000	      1.53470284	     -0.00000000
      5.25400000	    -54.78201841	    372.63950012	     10.52638537	      0.18737467	     -0.00000000	     -0.09090839	      0.00000000	      0.60545877	     -0.00000000	     43.08415583	    337.30030382	     -9.72888080	     -0.24886410	      0.00000000	     -0.02823261	      0.00000000	      1.53313037	     -0.00000000
      5.25500000	    -54.75029664	    372.56451310	     10.56855432	      0.18737059	     -0.00000000	     -0.09098053	      0.00000000	      0.60504363	     -0.00000000	     43.12332952	    337.44647427	     -9.71412227	     -0.24889805	      0.00000000	     -0.02827581	      0.00000000	      1.53145040	     -0.00000000
      5.25600000	    -54.71870940	    372.48964385	     10.61029360	      0.18736670	     -0.00000000	     -0.09104984	      0.00000000	      0.60486498	     -0.00000000	     43.16261092	    337.59374750	     -9.70107891	     -0.24893206	      0.00000000	     -0.02831571	      0.00000000	      1.52967163	     -0.00000000
      5.25700000	    -54.68729050	    372.41492463	     10.65153499	      0.18736298	     -0.00000000	     -0.09111610	      0.00000000	      0.60495298	     -0.00000000	     43.20192151	    337.74196923	     -9.68983532	     -0.24896612	      0.00000000	     -0.02835202	      0.00000000	      1.52780408	     -0.00000000
      5.25800000	    -54.65607403	    372.34038547	     10.69221760	      0.18735941	     -0.00000000	     -0.09117914	      0.00000000	      0.60533516	     -0.00000000	     43.24118353	    337.89098069	     -9.68046119	     -0.24900023	      0.00000000	     -0.02838452	      0.00000000	      1.52585903	     -0.00000000
      5.25900000	    -54.62509379	    372.26605388	     10.73228838	      0.18735595	     -0.00000000	     -0.09123882	      0.00000000	      0.60603613	     -0.00000000	     43.28032086	    338.04061934	     -9.67301076	     -0.24903440	      0.00000000	     -0.02841298	      0.00000000	      1.52384899	     -0.00000000
      5.26000000	    -54.59438276	    372.19195456	     10.77170258	      0.18735260	     -0.00000000	     -0.09129501	      0.00000000	      0.60707725	     -0.00000000	     43.31925984	    338.19071961	     -9.66752250	     -0.24906863	      0.00000000	     -0.02843725	      0.00000000	      1.52178764	     -0.00000000
      5.26100000	    -54.56397254	    372.11810920	     10.81042402	      0.18734934	     -0.00000000	     -0.09134767	      0.00000000	      0.60847641	     -0.00000000	     43.35793016	    338.34111364	     -9.66401889	     -0.24910291	      0.00000000	     -0.02845720	      0.00000000	      1.51968974	     -0.00000000
      5.26200000	    -54.53389285	    372.04453616	     10.84842536	      0.18734614	     -0.00000000	     -0.09139674	      0.00000000	      0.61024780	     -0.00000000	     43.39626563	    338.49163197	     -9.66250639	     -0.24913725	      0.00000000	     -0.02847274	      0.00000000	      1.51757104	     -0.00000000
      5.26300000	    -54.50417100	    371.97125037	     10.88568820	      0.18734299	     -0.00000000	     -0.09144222	      0.00000000	      0.61240174	     -0.00000000	     43.43420492	    338.64210432	     -9.66297558	     -0.24917165	      0.00000000	     -0.02848385	      0.00000000	      1.51544814	     -0.00000000
      5.26400000	    -54.47483147	    371.89826303	     10.92220310	      0.18733988	     -0.00000000	     -0.09148416	      0.00000000	      0.61494452	     -0.00000000	     43.47169228	    338.79236029	     -9.66540135	     -0.24920611	      0.00000000	     -0.02849052	      0.00000000	      1.51333837	     -0.00000000
